# xmcd CD database file
#
# Track frame offsets:
#	150
#	37149
#	81487
#	110833
#	142097
#	172638
#	202770
#	238522
#	275860
#
# Disc length: 4232 seconds
#
# Revision: 1
# Processed by: cddbd v1.5.2PL0 Copyright (c) Steve Scherf et al.
# Submitted via: CDex 1.50beta9
#
DISCID=82108609
DTITLE=Various Artist - Tantrance 13 [CD 2)
DYEAR=2009
DGENRE=Goa
TTITLE0=Techtonic - Gin'n'Tonic (Waio Remix)
TTITLE1=Burn In Noise - Pero Que Si - Pero Que No
TTITLE2=Perplex Vs. Onyx - Special Dejication
TTITLE3=Sundose - Loud And Clear
TTITLE4=Tikal - Black Space
TTITLE5=Polaris - Afterglow
TTITLE6=Talamasca XSI - Tribalagan
TTITLE7=S.U.N. Project - Let It Burn
TTITLE8=Atmos - Stay Awake
EXTD=YEAR: 2009
EXTT0=
EXTT1=
EXTT2=
EXTT3=
EXTT4=
EXTT5=
EXTT6=
EXTT7=
EXTT8=
PLAYORDER=
